<?xml version="1.0" standalone="no"?>
<?xml-stylesheet type="text/css" href="../css/hand.css"?>
<svg
   xmlns:dc="http://purl.org/dc/elements/1.1/"
   xmlns:cc="http://creativecommons.org/ns#"
   xmlns:rdf="http://www.w3.org/1999/02/22-rdf-syntax-ns#"
   xmlns:svg="http://www.w3.org/2000/svg"
   xmlns="http://www.w3.org/2000/svg"
   version="1.1"
   id="svg4570"
   width="500"
   height="600"
   viewBox="0 0 3120 2880">

  <g
     id="layer2"
     style="display:inline"
     fill="#3C3C3C">

    <path
        fill="none"
        stroke="#000000"
        stroke-width="13.5"
        stroke-linecap="butt"
        stroke-linejoin="miter"
        stroke-miterlimit="4"
        stroke-dasharray="none"
        stroke-opacity="1"
        d="m 2513.8518,2877.8125 -88.9629,-225.3681 -78.2222,-177.7777 -21.3334,-71.1111 -177.7777,-519.1112 -55.1481,-118.2161 -28.9128,-89.8811 -121.896,-305.0245 -50.3148,-230.4689 30.2998,-14.8084 40.9286,-7.9507 60.4292,25.1887 31.9999,34.9302 175.3683,373.29 105.2154,207.1283 78.3703,103.7645 -52.1131,-332.0781 -22.2791,-172.9154 -3.2199,-146.971 -21.5861,-386.24347 20.0611,-97.70006 59.172,-45.21148 80.7887,41.98263 23.7211,67.42921 59.3291,378.89767 19.8081,142.1176 33.7778,155.1286 60.0348,350.8666 17.0939,-245.7817 0.5205,-151.0417 7.8846,-139.098 2.7981,-165.4666 3.5556,-152.88902 -2.4402,-130.82231 5.4198,-165.93321 19.6448,-56.21568 88.6209,-42.93244 84.4181,40.03477 18.1426,86.01056 17.3262,175.84345 22.0697,359.03718 2.7667,196.7015 0.7181,216.889 26.3841,174.6726 48.4869,-171.1534 33.108,-117.75 25.7255,-185.3943 31.5687,-211.2461 30.9706,-279.57056 39.1667,-42.06654 52.074,-27.46847 56.198,31.732 23.2267,38.14202 0.6208,372.49775 -13.3811,187.4246 -18.9455,232.1741 -4.1133,272.1085 59.7297,300.7098 36.8805,-43.1194 51.2351,-160.2481 42.0242,-203.7017 94.2222,-108.4445 56.8889,-31.9999 56.8889,-6.6667 34.2222,9.3333 15.1111,-2.4444 -49.3333,227.3333 28.4444,136 -31.9476,93.281 -47.6558,96.1787 -33.9957,137.0675 -10.8453,182.8061 -83.6386,212.5446 -44.8541,134.1438"
        id="hand_outline"/>

    <path
       style="color:#000000;font-style:normal;font-variant:normal;font-weight:normal;font-stretch:normal;font-size:medium;line-height:normal;font-family:sans-serif;font-variant-ligatures:normal;font-variant-position:normal;font-variant-caps:normal;font-variant-numeric:normal;font-variant-alternates:normal;font-feature-settings:normal;text-indent:0;text-align:start;text-decoration:none;text-decoration-line:none;text-decoration-style:solid;text-decoration-color:#000000;letter-spacing:normal;word-spacing:normal;text-transform:none;writing-mode:lr-tb;direction:ltr;text-orientation:mixed;dominant-baseline:auto;baseline-shift:baseline;text-anchor:start;white-space:normal;shape-padding:0;clip-rule:nonzero;display:inline;overflow:visible;visibility:visible;opacity:1;isolation:auto;mix-blend-mode:normal;color-interpolation:sRGB;color-interpolation-filters:linearRGB;solid-color:#000000;solid-opacity:1;fill:#d50360;fill-opacity:0.67041201;fill-rule:nonzero;stroke:none;stroke-width:13.5;stroke-linecap:butt;stroke-linejoin:miter;stroke-miterlimit:4;stroke-dasharray:none;stroke-dashoffset:0;stroke-opacity:1;color-rendering:auto;image-rendering:auto;shape-rendering:auto;text-rendering:auto;enable-background:accumulate"
       d="m 2813.3066,554.33789 -62.8769,12.57422 -20.0664,26.45117 -0.8985,46.67578 6.2403,73.98633 0.049,0.14063 22.3887,65.3789 59.6465,27.11133 56.9511,-27.11914 21.5664,-60.20313 1.7832,-76.69336 -3.5859,-52.89843 -22.7734,-26.41602 z"
       id="path4599"/>

    <path
       style="color:#000000;font-style:normal;font-variant:normal;font-weight:normal;font-stretch:normal;font-size:medium;line-height:normal;font-family:sans-serif;font-variant-ligatures:normal;font-variant-position:normal;font-variant-caps:normal;font-variant-numeric:normal;font-variant-alternates:normal;font-feature-settings:normal;text-indent:0;text-align:start;text-decoration:none;text-decoration-line:none;text-decoration-style:solid;text-decoration-color:#000000;letter-spacing:normal;word-spacing:normal;text-transform:none;writing-mode:lr-tb;direction:ltr;text-orientation:mixed;dominant-baseline:auto;baseline-shift:baseline;text-anchor:start;white-space:normal;shape-padding:0;clip-rule:nonzero;display:inline;overflow:visible;visibility:visible;opacity:1;isolation:auto;mix-blend-mode:normal;color-interpolation:sRGB;color-interpolation-filters:linearRGB;solid-color:#000000;solid-opacity:1;fill:#d50360;fill-opacity:0.99625466;fill-rule:nonzero;stroke:none;stroke-width:13.5;stroke-linecap:butt;stroke-linejoin:miter;stroke-miterlimit:4;stroke-dasharray:none;stroke-dashoffset:0;stroke-opacity:1;color-rendering:auto;image-rendering:auto;shape-rendering:auto;text-rendering:auto;enable-background:accumulate"
       d="m 2813.3616,556.77344 57.1289,8.78906 21.6739,25.14062 3.5234,51.99024 -1.7715,76.19531 -21.1015,58.90821 -55.0489,26.21289 -57.6875,-26.22071 -22.0058,-64.25976 -6.2051,-73.56836 0.8808,-45.76953 19.045,-25.10352 z"
       id="middle"/>
    <path
       id="finger_index"
       d="m 3235.2856,769.87031 57.1289,8.78906 21.6739,25.14062 3.5234,51.99024 -1.7715,76.19531 -21.1015,58.90821 -55.0489,26.21285 -57.6875,-26.22067 -22.0058,-64.25976 -6.2051,-73.56836 0.8808,-45.76953 19.045,-25.10352 z"
       style="color:#000000;font-style:normal;font-variant:normal;font-weight:normal;font-stretch:normal;font-size:medium;line-height:normal;font-family:sans-serif;font-variant-ligatures:normal;font-variant-position:normal;font-variant-caps:normal;font-variant-numeric:normal;font-variant-alternates:normal;font-feature-settings:normal;text-indent:0;text-align:start;text-decoration:none;text-decoration-line:none;text-decoration-style:solid;text-decoration-color:#000000;letter-spacing:normal;word-spacing:normal;text-transform:none;writing-mode:lr-tb;direction:ltr;text-orientation:mixed;dominant-baseline:auto;baseline-shift:baseline;text-anchor:start;white-space:normal;shape-padding:0;clip-rule:nonzero;display:inline;overflow:visible;visibility:visible;opacity:1;isolation:auto;mix-blend-mode:normal;color-interpolation:sRGB;color-interpolation-filters:linearRGB;solid-color:#000000;solid-opacity:1;fill:#d50360;fill-opacity:1;fill-rule:nonzero;stroke:none;stroke-width:13.5;stroke-linecap:butt;stroke-linejoin:miter;stroke-miterlimit:4;stroke-dasharray:none;stroke-dashoffset:0;stroke-opacity:1;color-rendering:auto;image-rendering:auto;shape-rendering:auto;text-rendering:auto;enable-background:accumulate"/>
    <path
       style="color:#000000;font-style:normal;font-variant:normal;font-weight:normal;font-stretch:normal;font-size:medium;line-height:normal;font-family:sans-serif;font-variant-ligatures:normal;font-variant-position:normal;font-variant-caps:normal;font-variant-numeric:normal;font-variant-alternates:normal;font-feature-settings:normal;text-indent:0;text-align:start;text-decoration:none;text-decoration-line:none;text-decoration-style:solid;text-decoration-color:#000000;letter-spacing:normal;word-spacing:normal;text-transform:none;writing-mode:lr-tb;direction:ltr;text-orientation:mixed;dominant-baseline:auto;baseline-shift:baseline;text-anchor:start;white-space:normal;shape-padding:0;clip-rule:nonzero;display:inline;overflow:visible;visibility:visible;opacity:1;isolation:auto;mix-blend-mode:normal;color-interpolation:sRGB;color-interpolation-filters:linearRGB;solid-color:#000000;solid-opacity:1;fill:#d50360;fill-opacity:1;fill-rule:nonzero;stroke:none;stroke-width:13.5;stroke-linecap:butt;stroke-linejoin:miter;stroke-miterlimit:4;stroke-dasharray:none;stroke-dashoffset:0;stroke-opacity:1;color-rendering:auto;image-rendering:auto;shape-rendering:auto;text-rendering:auto;enable-background:accumulate"
       d="m 2394.2524,667.30087 57.1289,8.78906 21.6739,25.14062 3.5234,51.99024 -1.7715,76.19531 -21.1015,58.90821 -55.0489,26.21289 -57.6875,-26.22071 -22.0058,-64.25976 -6.2051,-73.56836 0.8808,-45.76953 19.045,-25.10352 z"
       id="finger_ring"/>
    <path
       style="fill:#ff1747;fill-opacity:1;stroke:#000000;stroke-width:0;stroke-linecap:butt;stroke-linejoin:miter;stroke-miterlimit:4;stroke-dasharray:none;stroke-opacity:1"
       d="m 1900.4165,1229.8162 -13.6938,-49.2635 -6.3933,-62.6905 7.1466,-24.7457 22.8971,-10.0027 28.0053,3.6896 36.7602,32.0184 22.2222,56.8889 4.0687,59.1644 -12.5599,60.7743 -22.1699,16.7734 -28.2843,-13.1993 -16.6656,-21.7897 z"
       id="finger_pinky"/>
    <path
       style="display:inline;fill:#ff0644;fill-opacity:1;stroke:#000000;stroke-width:0;stroke-linecap:butt;stroke-linejoin:miter;stroke-miterlimit:4;stroke-dasharray:none;stroke-opacity:1"
       d="m 3650.6667,1904 25.7778,-3.5556 24.8888,-27.1111 27.1112,-109.3333 9.7777,-56 2.6667,-23.5556 -2.6667,-14.8888 -18.7075,1.1966 -27.9591,12.8033 -33.3334,28.4445 -22.6666,34.6666 -12,45.3334 1.3333,48 11.1111,38.2222 z"
       id="path4626"/>
  </g>
</svg>
